<?xml version="1.0" standalone="no"?>
<!DOCTYPE svg PUBLIC "-//W3C//DTD SVG 20010904//EN"
 "http://www.w3.org/TR/2001/REC-SVG-20010904/DTD/svg10.dtd">
<svg version="1.0" xmlns="http://www.w3.org/2000/svg"
 width="1006.000000pt" height="906.000000pt" viewBox="0 0 1006.000000 906.000000"
 preserveAspectRatio="xMidYMid meet">

<g transform="translate(0.000000,906.000000) scale(0.100000,-0.100000)"
fill="#000000" stroke="none">
<path d="M3330 1665 c-228 -29 -592 -75 -807 -101 l-393 -48 -42 41 c-24 22
-63 52 -88 64 -41 22 -57 24 -195 24 -133 0 -155 -2 -197 -22 -61 -28 -140
-102 -162 -152 -21 -46 2 -40 -309 -77 -130 -15 -241 -30 -245 -33 -8 -6 -43
-627 -42 -752 0 -76 24 -139 72 -194 48 -54 116 -91 184 -100 35 -5 353 31
1074 120 1576 194 1474 180 1524 209 77 45 135 128 151 216 3 20 -15 205 -45
443 -27 225 -50 410 -50 413 0 2 -3 3 -7 3 -5 -1 -195 -25 -423 -54z m-1602
-143 c44 -57 -30 -175 -110 -175 -38 0 -58 25 -58 70 0 51 24 88 72 112 45 22
74 20 96 -7z"/>
</g>
</svg>
