<svg xmlns="http://www.w3.org/2000/svg" width="357" height="454" viewBox="0 0 357 454">
  <path id="Combined_Shape" data-name="Combined Shape" d="M345,454H12A12,12,0,0,1,0,442V159.512A15.586,15.586,0,0,0,12,144.5,15.588,15.588,0,0,0,0,129.488V12A12,12,0,0,1,12,0H345a12,12,0,0,1,12,12V129.03a15.478,15.478,0,0,0,0,30.941V442a12,12,0,0,1-12,12Z" transform="translate(0 0)" fill="#fff"/>
  <path id="Line" d="M0,.5H309.552" transform="translate(24 146)" fill="none" stroke="#e0e4eb" stroke-linecap="square" stroke-miterlimit="10" stroke-width="1" stroke-dasharray="3"/>
</svg>
