<svg id="Thumbs_Up_" data-name="Thumbs Up " xmlns="http://www.w3.org/2000/svg" xmlns:xlink="http://www.w3.org/1999/xlink" width="255.213" height="230.983" viewBox="0 0 255.213 230.983">
  <defs>
    <clipPath id="clip-path">
      <path id="Clip_2" data-name="Clip 2" d="M0,0H171.428V203.99H0Z" transform="translate(0.204 0.01)" fill="none"/>
    </clipPath>
    <clipPath id="clip-path-2">
      <path id="Clip_7" data-name="Clip 7" d="M0,0H80.913V112.882H0Z" transform="translate(0 0.118)" fill="none"/>
    </clipPath>
    <clipPath id="clip-path-3">
      <path id="Clip_10" data-name="Clip 10" d="M0,0H80.913V28.972H0Z" transform="translate(0 0.027)" fill="none"/>
    </clipPath>
    <clipPath id="clip-path-4">
      <path id="Clip_19" data-name="Clip 19" d="M0,0H100.188V203.99H0Z" transform="translate(0.445 0.01)" fill="none"/>
    </clipPath>
  </defs>
  <g id="Thumbs_Up_2" data-name="Thumbs Up " transform="translate(-0.799 28.185) rotate(-7)">
    <g id="Group_3" data-name="Group 3" transform="translate(61.203 0.182)">
      <path id="Clip_2-2" data-name="Clip 2" d="M0,0H171.428V203.99H0Z" transform="translate(0.204 0.01)" fill="none"/>
      <g id="Group_3-2" data-name="Group 3" clip-path="url(#clip-path)">
        <path id="Fill_1" data-name="Fill 1" d="M160.48,120.143a17.293,17.293,0,0,1,5.053,12.334c0,7.671-4.8,14.144-11.26,16.017a15.743,15.743,0,0,1,4.7,11.34v.511c0,6.848-4.2,12.661-9.9,14.491a16.164,16.164,0,0,1,5.314,12.121v1.476c0,8.559-6.363,15.556-14.137,15.556H62.018s-20.961.064-24.894-4.982c-2.544-3.264-7.285-6.075-10.31-7.65C25.163,190.5,24.022,190,24.022,190H0V106.857s21.187-1.37,34.084-8.168a24.925,24.925,0,0,0,6.094-4.322C50.659,83.793,66.383,54.477,68.573,39.1s-1.75-25.953,0-33.639S96.52-8,104.386,33.328c3.422,17.976,2.381,32.588.106,43.361-.51,2.4-1.077,4.606-1.665,6.621h51.24a16.04,16.04,0,0,1,9.226,2.945,19.627,19.627,0,0,1,8.135,16.159c0,8.012-4.549,14.9-10.948,17.728" transform="translate(0.204 0.01)" fill="#fec997"/>
      </g>
    </g>
    <path id="Fill_4" data-name="Fill 4" d="M34,0,26.748,93c-1.647-.862-2.785-1.36-2.785-1.36H0V8.2S21.135,6.823,34,0" transform="translate(61.396 99.121)" fill="#f1af6f"/>
    <g id="Group_8" data-name="Group 8" transform="translate(0.937 90.628)">
      <path id="Clip_7-2" data-name="Clip 7" d="M0,0H80.913V112.882H0Z" transform="translate(0 0.118)" fill="none"/>
      <g id="Group_8-2" data-name="Group 8" clip-path="url(#clip-path-2)">
        <path id="Fill_6" data-name="Fill 6" d="M80.913,8.093v96.7a8.077,8.077,0,0,1-8.068,8.093H8.07A8.082,8.082,0,0,1,.123,103.4L8.29,56.441,16.938,6.7A8.072,8.072,0,0,1,24.885,0h47.96a8.076,8.076,0,0,1,8.068,8.093" transform="translate(0 0.118)" fill="#47aefc"/>
      </g>
    </g>
    <g id="Group_11" data-name="Group 11" transform="translate(0.781 174.924)">
      <path id="Clip_10-2" data-name="Clip 10" d="M0,0H80.913V28.972H0Z" transform="translate(0 0.027)" fill="none"/>
      <g id="Group_11-2" data-name="Group 11" clip-path="url(#clip-path-3)">
        <path id="Fill_9" data-name="Fill 9" d="M3.5,0,.123,19.473a8.092,8.092,0,0,0,7.948,9.5H72.845a8.083,8.083,0,0,0,8.068-8.106V0Z" transform="translate(0 0.027)" fill="#1c75ff"/>
      </g>
    </g>
    <path id="Fill_12" data-name="Fill 12" d="M18,9A9,9,0,1,1,9,0a9,9,0,0,1,9,9" transform="translate(20.91 170.464)" fill="#4b4493"/>
    <path id="Fill_14" data-name="Fill 14" d="M18,9A9,9,0,1,1,9,0a9,9,0,0,1,9,9" transform="translate(17.933 170.098)" fill="#7165e3"/>
    <path id="Fill_16" data-name="Fill 16" d="M12.264,0A7.178,7.178,0,0,1,14.1,4.785,7.388,7.388,0,0,1,6.629,12.09,7.486,7.486,0,0,1,0,8.148C0,8.164,0,8.18,0,8.2A8.9,8.9,0,0,0,9,17a8.9,8.9,0,0,0,9-8.8A8.806,8.806,0,0,0,12.264,0" transform="translate(17.872 171.095)" fill="#182c31" opacity="0.3"/>
    <g id="Group_20" data-name="Group 20" transform="translate(131.433 0.416)">
      <path id="Clip_19-2" data-name="Clip 19" d="M0,0H100.188V203.99H0Z" transform="translate(0.445 0.01)" fill="none"/>
      <g id="Group_20-2" data-name="Group 20" clip-path="url(#clip-path-4)">
        <path id="Fill_18" data-name="Fill 18" d="M100.188,102.414a19.64,19.64,0,0,0-8.123-16.157v0l-.033-.021c-.322-.223-.649-.437-.985-.638l-.032-.018c-.3-.176-.6-.34-.906-.5l-.282-.141q-.4-.193-.8-.366c-.067-.028-.134-.06-.2-.088-.322-.131-.648-.249-.977-.359-.123-.041-.247-.078-.371-.117-.242-.076-.487-.143-.733-.206-.1-.025-.195-.052-.293-.075q-.517-.122-1.044-.21c-.079-.013-.16-.022-.239-.034q-.438-.065-.883-.105c-.1-.01-.209-.019-.314-.027-.37-.026-.743-.044-1.119-.044H31.688c.165-.567.328-1.154.49-1.752.087-.324.173-.654.259-.987s.166-.656.249-.99.161-.651.239-.986c.146-.622.289-1.255.427-1.906h0c2.269-10.775,3.312-25.382-.1-43.361C26.64-1.421,7.09-2.875,0,2.116,7.007,5.809,14.17,14.867,17.678,33.327c4.174,21.979,1.69,38.926-1.557,49.982v7.828H73.287a11.288,11.288,0,0,1,11.334,11.083c0,.064,0,.129,0,.193,0,8.012-4.543,14.9-10.932,17.728a17.307,17.307,0,0,1,5.045,12.334c0,7.672-4.8,14.144-11.243,16.018a15.752,15.752,0,0,1,4.7,11.34v.511c0,6.848-4.188,12.661-9.885,14.491a16.173,16.173,0,0,1,5.307,12.121v1.477c0,8.559-6.354,15.556-14.116,15.556H69.062c7.762,0,14.116-7,14.116-15.556v-1.477a16.176,16.176,0,0,0-5.306-12.121c5.7-1.831,9.884-7.643,9.884-14.491v-.511a15.752,15.752,0,0,0-4.7-11.34C89.5,146.619,94.3,140.148,94.3,132.476a17.306,17.306,0,0,0-5.045-12.334c6.39-2.825,10.932-9.715,10.932-17.728" transform="translate(0.445 0.01)" fill="#f1af6f"/>
      </g>
    </g>
    <path id="Fill_21" data-name="Fill 21" d="M4.591.521c.757.844.435,2.414-.72,3.507s-2.7,1.294-3.461.45-.434-2.414.72-3.507,2.7-1.294,3.461-.45" transform="translate(22.378 172.82)" fill="#fff"/>
  </g>
</svg>
