<svg id="Charachter_add" data-name="Charachter add" xmlns="http://www.w3.org/2000/svg" xmlns:xlink="http://www.w3.org/1999/xlink" width="340" height="155" viewBox="0 0 340 155">
  <defs>
    <clipPath id="clip-path">
      <path id="Mask" d="M10,0H330a10,10,0,0,1,10,10V155a0,0,0,0,1,0,0H0a0,0,0,0,1,0,0V10A10,10,0,0,1,10,0Z" fill="#7165e3"/>
    </clipPath>
    <clipPath id="clip-path-2">
      <path id="Clip_2" data-name="Clip 2" d="M0,0H469V518H0Z" fill="none"/>
    </clipPath>
    <clipPath id="clip-path-3">
      <path id="Clip_38" data-name="Clip 38" d="M0,0H71.413V18.883H0Z" transform="translate(0.816 0.116)" fill="none"/>
    </clipPath>
    <clipPath id="clip-path-4">
      <path id="Clip_61" data-name="Clip 61" d="M0,0H47.545V94.415H0Z" transform="translate(0 0.803)" fill="none"/>
    </clipPath>
    <clipPath id="clip-path-5">
      <path id="Clip_74" data-name="Clip 74" d="M0,0H13.238V28.372H0Z" transform="translate(0 0.296)" fill="none"/>
    </clipPath>
    <clipPath id="clip-path-6">
      <path id="Clip_93" data-name="Clip 93" d="M0,0H29.52V13.531H0Z" transform="translate(0.355 0.613)" fill="none"/>
    </clipPath>
  </defs>
  <path id="Mask-2" data-name="Mask" d="M10,0H330a10,10,0,0,1,10,10V155a0,0,0,0,1,0,0H0a0,0,0,0,1,0,0V10A10,10,0,0,1,10,0Z" fill="#1a6ff4"/>
  <g id="Charachter_add-2" data-name="Charachter add" clip-path="url(#clip-path)">
    <g id="Group_3" data-name="Group 3" transform="translate(-234 -174)">
      <path id="Clip_2-2" data-name="Clip 2" d="M0,0H469V518H0Z" fill="none"/>
      <g id="Group_3-2" data-name="Group 3" clip-path="url(#clip-path-2)">
        <path id="Fill_1" data-name="Fill 1" d="M309.53,518a48.974,48.974,0,0,1-5.71-9.47,56.674,56.674,0,0,1-3.778-11.406c4.284,5.063,7.387,11.892,9.49,20.875Zm-40.47-20.837a2.579,2.579,0,0,1-2.653-1.785,13.177,13.177,0,0,1-.514-3.926c-.066-1.814-.135-3.69-.973-4.765a6.568,6.568,0,0,0-.7-.04c-2.343,0-3.261,1.463-4.149,2.877s-1.807,2.878-4.147,2.878c-.158,0-.323-.007-.492-.02-1.943-1.077-2.435-3.654-2.911-6.145-.372-1.948-.757-3.962-1.832-5.246a14.858,14.858,0,0,1-3.406.407c-4.35,0-7.97-2.057-11.47-4.047a42.2,42.2,0,0,0-6.009-3.005c-.186-.869-.39-1.739-.587-2.58a56.386,56.386,0,0,1-1.312-6.911,13.54,13.54,0,0,0-7.3-1.87,17.241,17.241,0,0,0-6.477,1.222,8.085,8.085,0,0,0-4.254,3.5,3.725,3.725,0,0,1,.762-4.235,20.866,20.866,0,0,1,4.2-3.377,19.113,19.113,0,0,0,3.584-2.827c-.256-5.2-2.446-8.558-4.564-11.807-.706-1.083-1.436-2.2-2.085-3.377-.673-.062-1.427-.093-2.306-.093-1.13,0-2.33.051-3.49.1s-2.365.1-3.5.1c-2.808,0-4.625-.327-5.891-1.06.15-1.053-.158-1.673-.943-1.9.884-4,4.951-4.9,8.539-5.7,5.448-3.332,9.943-11.983,10.688-20.569.577-6.649-1.2-12.152-4.992-15.494-2.105,4.44-4.847,6.508-8.626,6.509-3.079,0-6.532-1.353-10.187-2.786-1.595-.625-3.243-1.271-4.917-1.827a20.54,20.54,0,0,1-4.209-9.8,18.745,18.745,0,0,1,1.028-9.853,10.632,10.632,0,0,1,8.875-6.924,15.106,15.106,0,0,1,1.583-.087,8.4,8.4,0,0,1,6.787,2.912,25.211,25.211,0,0,1,3.664,6.69,31.741,31.741,0,0,0,4.1,7.567c2.541-4.384,3.531-13.146,2.52-22.322-1.081-9.8-4.152-17.427-8.216-20.389-.074,0-.148-.006-.22-.006-1.622,0-2.226,1.044-2.811,2.053s-1.189,2.054-2.809,2.054a6.088,6.088,0,0,1-1.749-.3c.338-4.714-.712-8.415-3.12-11-2.994-3.216-8.017-4.78-15.355-4.78a84.351,84.351,0,0,0-9.057.591,4.487,4.487,0,0,1,1.889-3.026,4.3,4.3,0,0,0,1.911-3.613c-.159-3.167-2.212-4.492-4.2-5.773a15.274,15.274,0,0,1-2.45-1.822,30.371,30.371,0,0,0-4.837,2.253,27.176,27.176,0,0,1-5.6,2.491,99.555,99.555,0,0,1-3.741,18.01c-1.907,5.719-4.408,9.763-7.646,12.363,1.126-4.247,2.356-8.472,3.544-12.557a269.964,269.964,0,0,0,6.9-27.306c-3.476-1.994-5.722-5.31-7.893-8.516-3.481-5.139-7.08-10.453-15.838-10.462a27.276,27.276,0,0,1-3.844,8.257,31.284,31.284,0,0,1-5.817,6.285c-4.281,3.578-9.336,6.276-15.022,9.183a12.029,12.029,0,0,0-6.465-1.822c-2.848,0-4.988,1.01-5.872,2.771a53.29,53.29,0,0,0-8.989-8.166c-4.536-3.529-9.226-7.179-11.892-12.713a84.324,84.324,0,0,0-1.9-16.132,38.861,38.861,0,0,1,5.05-9.662,35.353,35.353,0,0,1,7.288-7.425,41.454,41.454,0,0,1,9.425-5.288,58.206,58.206,0,0,1,11.462-3.251c1.722.014,2.261,1.242,2.783,2.43.428.974.87,1.981,1.962,2.314a12.233,12.233,0,0,1,2.126-.17,28.976,28.976,0,0,1,3.574.282l.3.038a23.316,23.316,0,0,0,2.712.245,2.943,2.943,0,0,0,1.729-.394c5.2-10.163,2.85-20.577,0-30.373-7.469-6.364-20.488-7.042-31.973-7.64-4.223-.22-8.209-.428-11.684-.9a.6.6,0,0,0-.491.211c-.2.283-.039.82.147,1.441.323,1.081.726,2.427-.608,3.092a23.935,23.935,0,0,1-7.6,1.9c-.79.635-.871,2-.95,3.324s-.159,2.688-.95,3.32c-3.212.7-6.518,1.129-9.714,1.544-6.621.859-13.467,1.746-19.707,5.1-.778-4.427-3.9-6.616-6.649-8.546-.082,0-.166-.007-.248-.007a4.423,4.423,0,0,0-2.7,1,4.428,4.428,0,0,1-2.7,1,5.605,5.605,0,0,1-.991-.1c-2.577-6.78-9.36-13.538-14.239-18.031,2.571-6.5-.166-11.937-3.8-14.237,2.995-5.274,5.142-11.538,7.219-17.6,1.021-2.977,2.076-6.055,3.219-8.979-.69-1.783-2.937-2.052-5.111-2.311a12.421,12.421,0,0,1-3.583-.771,2.821,2.821,0,0,1-1.745-2.608,11.726,11.726,0,0,1,4.187-.842c2.927,0,5.22,1.392,7.647,2.866a30.52,30.52,0,0,0,5.25,2.721,12.016,12.016,0,0,0,4.818-3.766c1.88-2.093,3.825-4.256,7.867-4.256a15.732,15.732,0,0,1,3.457.43,4.668,4.668,0,0,0,1.85-2.737,7.749,7.749,0,0,1,.995-2.012,13.548,13.548,0,0,0,5.688,1.1c.513,0,1.021-.016,1.429-.029l.051,0c.447-.014.866-.028,1.274-.028a5.822,5.822,0,0,1,3.345.776,6.972,6.972,0,0,1,2.451,3.873,5.36,5.36,0,0,0,1.26.171c1.586,0,2.169-1.029,2.734-2.025s1.149-2.028,2.738-2.028a4.8,4.8,0,0,1,.858.084c.881,9.218,6.911,13.2,13.3,16.139-.912,6.171,3.107,10.632,6.64,13.288a4.356,4.356,0,0,1-.994,2.948,4.324,4.324,0,0,0-.9,3.692,2.844,2.844,0,0,0,.927,1.325,2.668,2.668,0,0,1,.972,1.525,27.007,27.007,0,0,1,4.6-.408c5.771,0,10.246,2.025,14.194,3.812l.337.153c4.155,1.882,8.08,3.66,13,3.66a21.526,21.526,0,0,0,4.882-.574c-.6-1.148-1.916-1.613-3.187-2.063a7.235,7.235,0,0,1-2.659-1.36,3.448,3.448,0,0,1-.8-3.22,13.967,13.967,0,0,1,2.337-.211,12,12,0,0,1,6.374,2.018,12.632,12.632,0,0,0,5.53,1.987c4.5-8.433,11.324-14.562,18.033-19.93-6.265-4.777-14.576-7.692-22.613-10.512a126.67,126.67,0,0,1-16.309-6.571c10.831,3.5,22.259,6.741,32.458,6.741,13.733,0,21.746-5.93,24.5-18.13a40.865,40.865,0,0,1,5.995-2.807,26.784,26.784,0,0,0,6.214-3.117,7.1,7.1,0,0,0,2.98-5.468c.233-3.4-2-5.322-4.826-7.757a35.958,35.958,0,0,1-4.669-4.579c-1.847-2.278-3.631-5.9-5.356-9.411a74.422,74.422,0,0,0-4.133-7.677,23.974,23.974,0,0,0-2.42-2.995c-1.923-2.118-3.442-3.792-3.276-8.391a14.081,14.081,0,0,1,5.338,4.587,45.913,45.913,0,0,1,3.646,6.278c1.7,3.307,3.45,6.726,6.2,9.063,4.277.921,6.726,3.759,9.095,6.5a24.109,24.109,0,0,0,5.144,4.888,15.669,15.669,0,0,1,6.426-1.345,34.22,34.22,0,0,1,5.772.647l.012,0a34.383,34.383,0,0,0,5.816.649,16.2,16.2,0,0,0,7.6-1.852,11.738,11.738,0,0,0-1.063-5.255,11.247,11.247,0,0,1-.832-7.083,120.625,120.625,0,0,0,13.72,5.735,47.157,47.157,0,0,0,14.636,2.847,17.975,17.975,0,0,0,8.664-1.937,11.18,11.18,0,0,0-.95-6.171,11.168,11.168,0,0,1-.949-6.171,4.817,4.817,0,0,0,2.848-2.848h.1a4.307,4.307,0,0,1,3.678,1.552,10.755,10.755,0,0,1,1.534,3.561,16.043,16.043,0,0,0,1.332,3.432c1.056,1.826,2.2,3.6,3.315,5.318a70.8,70.8,0,0,1,5.894,10.38,38.77,38.77,0,0,1,3.131,13.726,54.159,54.159,0,0,0,8.408,6.355,39.884,39.884,0,0,1,8.682,6.933c6.716-1.973,9.987-7.539,13.149-12.921a50.534,50.534,0,0,1,5.056-7.538,16.9,16.9,0,0,1,7.422-5.17,5.155,5.155,0,0,1,.7,4.847,8.334,8.334,0,0,1-5.446,4.643c-1.217,3.606-2.739,6.989-4.21,10.26A109.678,109.678,0,0,0,291.5,175.38a34.7,34.7,0,0,0,9.763,1.178,150.782,150.782,0,0,0,19.365-1.816l.437-.059a159.81,159.81,0,0,1,20.576-1.875,42.5,42.5,0,0,1,12.288,1.546,21.585,21.585,0,0,1,9.715,5.769c2.259-2.849,1.027-5.909-.278-9.148a17,17,0,0,1-1.624-6.036c-.029-6.34,3.554-10.992,7.02-15.492a38.4,38.4,0,0,0,5.323-8.236,17,17,0,0,0,3.24.345,7.913,7.913,0,0,0,5.349-1.745,10.312,10.312,0,0,0,2.8-4.3,8.314,8.314,0,0,0,4.456,1.238,8.269,8.269,0,0,1,5.035,1.61c.969-.564,1.73-1.049,2.341-1.44,1.441-.921,2.164-1.383,3.246-1.383a14.206,14.206,0,0,1,3.906.926v3.8a13.077,13.077,0,0,1,7.181,4.052,36.2,36.2,0,0,1,4.562,6.67c1.752,3.018,3.563,6.137,6.293,8.256a6.36,6.36,0,0,1-1.909,4.66,6.651,6.651,0,0,0-1.889,3.887,14.912,14.912,0,0,1,1.1,6.92,13.69,13.69,0,0,1-1.931,5.736c-2.062,3.507-5.437,6.457-8.7,9.309a48.979,48.979,0,0,0-6.6,6.505c-1.011-.207-1.958-.455-2.875-.694l-.006,0a19.032,19.032,0,0,0-4.635-.842,5.8,5.8,0,0,0-4.827,2.487c-.431-.383-.86-.777-1.275-1.157-2.488-2.283-4.838-4.44-7.622-4.44a6.991,6.991,0,0,0-4.392,1.8,11.738,11.738,0,0,0-6.648-2.361c-3.061,0-6.015,1.555-9.033,4.752a61.7,61.7,0,0,0-6.773,9.363l0,.008c-.784,1.241-1.524,2.413-2.221,3.427.675,3.233,3.571,4.311,6.371,5.355,2.413.9,4.907,1.828,5.971,4.131a20.188,20.188,0,0,1-4.658,5.1c-3,2.587-5.836,5.03-4.836,11.038a23.049,23.049,0,0,1-4.591,2.236c-3.957,1.584-8.049,3.222-7.75,9.159,1.573,2.209,4.628,2.266,7.862,2.326,3.908.073,7.95.148,9.225,4.317a28.019,28.019,0,0,1-7.193,1.644c-2.823.39-5.489.757-7.351,2.061-2.082,1.458-2.89,3.9-2.543,7.681a10.65,10.65,0,0,0,2.144,5.537,17.446,17.446,0,0,0,4.714,4.18c3.815,2.437,8.686,4.24,13.842,6.148,12.572,4.652,25.568,9.462,22.015,24a29.884,29.884,0,0,1-9.952,1.7,38.487,38.487,0,0,1-10.118-1.482c-3.284-.89-6.57-2.1-9.747-3.275l-.208-.077c-6.44-2.376-13.1-4.832-20.526-4.832a32.757,32.757,0,0,0-9.247,1.325c-1.6,2.548-4.053,4.312-6.425,6.018-3.236,2.328-6.58,4.734-7.811,9.163a2.847,2.847,0,0,0,1.484.522c1.177,0,1.811-1.221,2.546-2.634.087-.168.186-.358.286-.546.821-1.538,1.875-3.179,4-3.179a5.161,5.161,0,0,1,1.174.146c-2.254,15.29,7.786,20.54,16.643,25.173,4.97,2.6,9.665,5.054,11.832,8.992-4.385-3.047-9.309-4.971-14.071-6.832a79.284,79.284,0,0,1-10.992-4.95,28.042,28.042,0,0,1-9.112-8.146,16.2,16.2,0,0,1-2.007.134,7.342,7.342,0,0,1-5.586-2.033,1.823,1.823,0,0,0-.778.457,1.583,1.583,0,0,1-1.114.493h-.007c-4.013,7.007-2.945,14.1-1.912,20.965a66.6,66.6,0,0,1,.962,9.406c-3.381,1.978-8.253,2.557-12.964,3.117-5.021.6-10.213,1.213-13.615,3.525a4.208,4.208,0,0,0,.992,2.947,5.019,5.019,0,0,1,.907,1.8c.212.019.425.028.631.028,2.309,0,3.418-1.237,4.491-2.434a6.1,6.1,0,0,1,3.424-2.338,21.507,21.507,0,0,0,11.069,3.823c2.66,0,4.365-.967,5.066-2.873a1.29,1.29,0,0,1,1.03,1.35,4.258,4.258,0,0,1-.7,2.125,2.92,2.92,0,0,1-1.271,1.272c.721,1.462,2.356,2.045,3.938,2.609a7.294,7.294,0,0,1,3.657,2.138c-.318,4.228.855,7.245,3.587,9.224,2.588,1.875,6.354,2.627,9.7,3.114-.73,9.079,5.228,11.541,11.393,13.285a37.324,37.324,0,0,1-.8,5.5,19.384,19.384,0,0,0-.143,8.738,7.928,7.928,0,0,0,3.8.975,11.2,11.2,0,0,1,3.168.609,2.406,2.406,0,0,1,1.566,2.21c.158,2.544-1.622,3.189-3.343,3.814-1.475.535-3,1.089-3.3,2.834a14.308,14.308,0,0,0,1.974,7.327,16.9,16.9,0,0,1,1.827,5.005,21.846,21.846,0,0,1-2.091,2.4c-2.174,2.265-4.421,4.606-3.6,9.938.827,2.245,3.427,2.769,5.942,3.275a12.766,12.766,0,0,1,4.5,1.469,22.2,22.2,0,0,0,2.629-2.087c2.027-1.785,4.124-3.631,8-3.631.247,0,.5.007.757.022,1.523,2.785-.362,4.13-2.357,5.555a11.57,11.57,0,0,0-2.387,2.043c1.084,2.392,3.767,3.243,6.362,4.067a19.59,19.59,0,0,1,4.079,1.629,11.084,11.084,0,0,1-1.322.077c-2.651,0-5.447-.895-8.407-1.842l-.951-.3a36.75,36.75,0,0,0-11.367-2.145,25.378,25.378,0,0,0-4.53.41c-3,3.136-5.267,7.116-7.456,10.965-2.345,4.125-4.771,8.39-8.114,11.627a20.238,20.238,0,0,1-5.852,4.018,22.4,22.4,0,0,1-8.006,1.863c-1.262,2.316-.894,4.335-.467,6.673a23.205,23.205,0,0,1,.467,3.769,8.553,8.553,0,0,1-1.8.211,6.227,6.227,0,0,1-3.953-1.531,6.317,6.317,0,0,0-3.739-1.528,1.489,1.489,0,0,0-1.054.719c-.216.507.127,1.155.489,1.842a3,3,0,0,1,.565,2.186,4.652,4.652,0,0,1-1.856-2.739,7.694,7.694,0,0,0-.992-2.008c-.263.006-.528.009-.787.009a54.862,54.862,0,0,1-6.352-.451l-.163-.018a50.372,50.372,0,0,0-5.824-.433,26,26,0,0,0-6.8.893c-1.164,1.067-1.487,3.011-1.8,4.891-.4,2.389-.807,4.858-2.948,5.548A5.409,5.409,0,0,1,269.06,497.159ZM257.021,357.249a8.735,8.735,0,0,0-2.545.357,6.694,6.694,0,0,0,2.134,3.8,6.029,6.029,0,0,0,3.956,1.689,4.383,4.383,0,0,0,2.454-.745,4.3,4.3,0,0,0-1.082-3.362A6.721,6.721,0,0,0,257.021,357.249Zm60.108-45.2h0a4.727,4.727,0,0,0-1.54,4.782,8.536,8.536,0,0,0,3.236,4.19,14.5,14.5,0,0,0,4.944,2.417A21.37,21.37,0,0,1,322,319.077c-.957-2.944-1.947-5.987-4.869-7.03ZM353.05,493.363a22.52,22.52,0,0,1-6.882-1.06c-2.808-1-4.276-2.568-4.362-4.671.833.184,1.7.347,2.547.5a29.468,29.468,0,0,1,5.959,1.533,6.508,6.508,0,0,1,3.833,3.659C353.826,493.352,353.447,493.363,353.05,493.363ZM10.555,492.114h0a12.471,12.471,0,0,1-3.819-.684c-.061-2.674-1.718-4.528-3.32-6.321-1.9-2.122-3.857-4.316-3.326-7.916.532-3.615,4.646-7.164,8.305-7.164a5.435,5.435,0,0,1,4.982,3.366c.389-.252.767-.523,1.132-.785a9.022,9.022,0,0,1,5.706-2.2,11.282,11.282,0,0,1,1.7.138,10.9,10.9,0,0,0,.951,1.9,10.827,10.827,0,0,1,.95,1.9c-1.818,1.9-2.953,4.881-4.051,7.762a29.463,29.463,0,0,1-3.3,6.878,7.965,7.965,0,0,1-2.468,2.27A6.819,6.819,0,0,1,10.555,492.114Zm83.255-6.878c-4.756,0-7.369-2.222-9.9-4.371-.7-.6-1.429-1.215-2.189-1.775-4.591.3-7.761,2.107-10.826,3.854-1.1.626-2.233,1.272-3.415,1.84a9.673,9.673,0,0,1,1.059-4.2,9.107,9.107,0,0,0,.837-6.235c-.956-2.627-3.327-3.96-7.046-3.96a19.964,19.964,0,0,0-2.443.162c-.345-.556-.661-1.156-.967-1.737-1.272-2.416-2.586-4.911-6.333-4.911-.1,0-.2,0-.3,0-1.121-9.488-3.419-17.364-6.647-22.778a16.407,16.407,0,0,1,2.022-5.573c1.377-2.668,2.8-5.426,1.779-10.56-.521-1.85-2.146-2.633-3.718-3.389a9.453,9.453,0,0,1-2.772-1.745,4.283,4.283,0,0,1-1.105-3.411c.715.048,1.433.072,2.136.072,10.9,0,18.571-5.756,21.594-16.207a9.965,9.965,0,0,0,4.056.967c2.639,0,4.509-1.4,6.318-2.758l.058-.044c1.78-1.334,3.62-2.714,6.1-2.714a8.768,8.768,0,0,1,3.4.754c1.8-.251,2.57-1.552,3.319-2.81a8.151,8.151,0,0,1,1.426-1.937,20.661,20.661,0,0,1,3.4,2.423c2.175,1.785,4.424,3.63,8.453,3.63a17.193,17.193,0,0,0,3.335-.357c.477.641.914,1.342,1.336,2.019,1.131,1.813,2.3,3.686,4.358,4.626a5.817,5.817,0,0,0,1.5.223,3.77,3.77,0,0,0,2.589-1.107,3.774,3.774,0,0,1,2.589-1.106,5.126,5.126,0,0,1,.913.089,36.54,36.54,0,0,1,1.22,3.479c1.044,3.326,2.124,6.765,5.42,7.91.115.007.231.011.344.011a4.461,4.461,0,0,0,3.21-1.46,4.458,4.458,0,0,1,3.2-1.46,5.9,5.9,0,0,1,.84.064c-3.981,6.05-4.507,12.781-1.441,18.468,3.333,6.184,10.29,10.026,18.155,10.026a26.552,26.552,0,0,0,7.017-.971c-1.787,1.472-4.418,2.158-8.279,2.158-2.049,0-4.192-.191-6.39-.4l-.378-.037c-1.942-.189-3.776-.367-5.326-.367a7.651,7.651,0,0,0-3.358.549c-3.335,2.6-3.178,7.156-3.026,11.557.129,3.732.262,7.592-1.721,10.272.008,2.048,1.21,2.936,2.372,3.8s2.365,1.749,2.375,3.8a2.389,2.389,0,0,1-1.06.262c-1.1,0-2.036-.878-3.024-1.807l-.27-.253c-1.118-1.043-2.346-2.06-3.989-2.06a5.825,5.825,0,0,0-3.051,1.011,17.884,17.884,0,0,1,0,10.44,5.748,5.748,0,0,1-1.034.1,3.7,3.7,0,0,1-3.172-1.953,3.7,3.7,0,0,0-3.173-1.953c-.069,0-.141,0-.214,0a3.377,3.377,0,0,0-3.174,2.278,12.337,12.337,0,0,0-.36,4.227c.05,2.108.1,4.1-1.212,4.884-2.375-.005-3.272-1.528-4.139-3a5.707,5.707,0,0,0-2.5-2.693,7.106,7.106,0,0,0-4.747,5.693A20.151,20.151,0,0,1,93.81,485.237Zm83.781-35.569h0c-7.938-.8-14.767-1.735-20.878-2.847a35.623,35.623,0,0,1,8.336-.906,30.623,30.623,0,0,1,7.572.84c2.47.649,4.142,1.629,4.971,2.912Zm-18.984-10.439v0a1.241,1.241,0,0,1,.227-1.112c1.238-1.582,6.433-1.785,10.821-1.785,1.143,0,2.282.015,3.288.029h.021c.63.009,1.226.017,1.778.021a3.9,3.9,0,0,1-2.637,2.131,14.468,14.468,0,0,1-4.275.506c-1.154,0-2.339-.065-3.553-.137l-.21-.013c-1.07-.064-2.08-.125-2.943-.125a4.084,4.084,0,0,0-2.516.486Zm198.164-26.5c-2.938,0-5.979-.47-8.32-3.875a55.237,55.237,0,0,1,10.271-1.06c4.739,0,10.755.842,12.507,4.854a32.652,32.652,0,0,0-5.108-.377c-1.721,0-3.335.108-4.976.229l-.3.022C359.4,412.633,358.042,412.733,356.771,412.733ZM171.9,379.432h0c2.8-5.6,12.384-12.381,19.931-17.081-3.46,5.595-8.914,9.348-14.188,12.978C175.728,376.644,173.752,378,171.9,379.432ZM462.948,252.209a5.417,5.417,0,0,1-4.389-1.849,4.912,4.912,0,0,1,1.453-3.613,6.59,6.59,0,0,1,4.634-1.927A4.51,4.51,0,0,1,469,247.513a4.2,4.2,0,0,1-1.929,3.474A7.343,7.343,0,0,1,462.948,252.209ZM87.346,173a19.568,19.568,0,0,1-6.853-1.075c-2.26-.9-3.443-2.289-3.517-4.135,2.553.63,4.943,1.475,7.254,2.293a71.246,71.246,0,0,0,7.931,2.454A22.655,22.655,0,0,1,87.346,173Zm314.727-45.077h0a15.99,15.99,0,0,1-7.113-1.889c.27-10.43,7-14.375,14.239-17.086-3.1-.986-5.047-3.19-6.931-5.322-1.765-2-3.59-4.062-6.358-5.121-.362-1.253-.663-2.593-.954-3.888-1.078-4.8-2.194-9.761-6.635-11.295.02-1.921,1.255-2.66,2.45-3.375a4.413,4.413,0,0,0,2.295-2.321,1.885,1.885,0,0,0-.951-2.371,1.883,1.883,0,0,1-.948-2.373,4.947,4.947,0,0,1,3.309-.96c.159,0,.322,0,.486.011a9.57,9.57,0,0,1,1.48-6.075,17.592,17.592,0,0,1,3.8-3.755c2.256-1.814,4.588-3.69,5.164-7.252a12.462,12.462,0,0,0,4.3.844A6.39,6.39,0,0,0,415.845,52c2.294,3,5.743,3.082,9.394,3.166a22.478,22.478,0,0,1,5.792.629,18.971,18.971,0,0,1,5.916,3.359c2.271,1.689,4.415,3.284,7.373,3.287a5.1,5.1,0,0,1,.4,3.954,15.486,15.486,0,0,0-.4,2.692c.25.755.979,1.091,2.364,1.091.629,0,1.336-.068,2.02-.135s1.389-.135,2.016-.135a4.894,4.894,0,0,1,1.19.121c.027,2.119-1.287,2.933-2.557,3.721a5.484,5.484,0,0,0-2.187,1.977,17.729,17.729,0,0,1,1.892,6.6,17.006,17.006,0,0,1-.646,6.008c-1.087,3.851-3.329,7.483-5.5,11a63.844,63.844,0,0,0-4.29,7.72,18.72,18.72,0,0,0-4.528-.59c-7.852,0-12.838,5.95-16.844,10.731l-.533.637C412.38,123.016,408.282,127.918,402.073,127.918ZM232.647,72.876h0c-3.206-1.392-6.412-2.642-10.387-2.642a24.357,24.357,0,0,0-5.75.746c-3.525-2.516-7.3-4.972-11.258-4.972a9.082,9.082,0,0,0-2.031.228c.76-1.669.917-2.927.476-3.846-.658-1.374-2.525-1.852-4.687-2.4-.485-.124-.987-.252-1.487-.395a11.988,11.988,0,0,0-.554-5.548,18.337,18.337,0,0,0-2.209-3.965A20.3,20.3,0,0,1,191.83,44.4a26.449,26.449,0,0,0,4.188-6.566c1.238-3.167.788-5.749-1.337-7.672,6.863-3.471,11.519-8.127,14.235-14.234a12.933,12.933,0,0,0,4.5.86c3.534,0,6.047-1.7,6.892-4.657.086,0,.166-.006.239-.006a3.651,3.651,0,0,1,3.139,1.945A4.05,4.05,0,0,0,226,15.933c2.978-.009,4.07-1.925,4.745-3.8a32.391,32.391,0,0,1,7.6,6.682c3.274,3.556,6.659,7.232,12.334,8.5-2.076,4.885-.89,8.219.366,11.748,1.037,2.913,2.109,5.926,1.529,10.084a5.59,5.59,0,0,0-3.8,2.729c-.929,1.72-.928,4.12,0,6.759-1.455.96-3.037,1.83-4.567,2.672-4.89,2.691-9.946,5.473-11.564,11.564ZM363.041,32.7h0a14.236,14.236,0,0,1-4.148-.636c.145-1.057-.166-1.679-.952-1.9a12.051,12.051,0,0,1,2.007-4.412,14.281,14.281,0,0,1,3.5-3.389,16.825,16.825,0,0,1,9.473-2.942,15.438,15.438,0,0,1,3.061.3,14.106,14.106,0,0,1-3.987,9.264A12.541,12.541,0,0,1,363.041,32.7ZM199.322,5.984h0a7.028,7.028,0,0,1-1.561-.229l-.248-.055a10.768,10.768,0,0,0-2.43-.284,12.743,12.743,0,0,0-1.358.077c-1.15-1.808-.926-3.035-.536-3.746A4.02,4.02,0,0,1,196.812,0,4.864,4.864,0,0,1,200.6,1.629a4.477,4.477,0,0,1,.722,3.864A4.767,4.767,0,0,1,199.322,5.984Z" fill="rgba(25,22,52,0.18)"/>
      </g>
    </g>
    <g id="Group_133" data-name="Group 133" transform="translate(25 17)">
      <path id="Fill_1-2" data-name="Fill 1" d="M68.16,42.036c.049,2.918-3.211,6.891-7.836,10.945q-.468.41-.956.823A121.944,121.944,0,0,1,42.106,65.7c-5.425,3.1-12.986,6.591-20.138,7.521-6.758.875-13.156-.543-17.044-6.754A21.938,21.938,0,0,1,3.692,64.21c-6.329-13.265-2.6-35.682-2.6-35.682L17.148,0c11.386,10.239,8.465,36.753,12.628,39.81.071.052.143.1.218.146a4.048,4.048,0,0,0,1.834.554C36.4,40.884,44.445,36.129,52.537,34q.654-.169,1.309-.32c.413-.092.823-.176,1.234-.252,7.22-1.335,12.976,2.366,13.08,8.607" transform="translate(67.19 58.681)" fill="#fefefe"/>
      <path id="Fill_3" data-name="Fill 3" d="M7.819,19.3q-.468.41-.956.823A21.775,21.775,0,0,1,.413,7.26,34.959,34.959,0,0,1,.032.321C.468.207.905.1,1.34,0a33.688,33.688,0,0,0,.345,7.094c.836,5.172,2.891,9.253,6.134,12.206" transform="translate(119.695 92.362)" fill="#abc0fe"/>
      <path id="Fill_5" data-name="Fill 5" d="M10.077.554c-2.952,1.978-7,5.1-8.879,8.394a.639.639,0,0,1-.558.323.65.65,0,0,1-.316-.084.643.643,0,0,1-.24-.876,25.134,25.134,0,0,1,6.383-6.75A38.823,38.823,0,0,0,1.059,3.085a.641.641,0,1,1-.451-1.2A35.467,35.467,0,0,1,8.243,0a4.052,4.052,0,0,0,1.834.554" transform="translate(88.941 98.637)" fill="#abc0fe"/>
      <path id="Fill_7" data-name="Fill 7" d="M18.275,9.663C11.517,10.538,5.121,9.12,1.231,2.91A22.231,22.231,0,0,1,0,.656c2.336-.787,7.065-1.532,13.033,2,3.867,2.286,5.08,4.865,5.242,7.01" transform="translate(70.882 122.235)" fill="#d51247"/>
      <path id="Fill_9" data-name="Fill 9" d="M21.212,0S15.411,19.957,4.88,22.372L0,16.24S10.147,1.025,21.212,0" transform="translate(126.709 79.644)" fill="#acc1ff"/>
      <path id="Fill_11" data-name="Fill 11" d="M0,34.777l.81.463A1.131,1.131,0,0,0,2.126,35.1C5.5,32.086,21.881,17.423,24.673,14.518a1.125,1.125,0,0,0,.288-1.015L22.414,1.452a1.13,1.13,0,0,0-.483-.71L20.81,0l2.61,12.988Z" transform="translate(126.45 66.068)" fill="#121032"/>
      <path id="Fill_13" data-name="Fill 13" d="M2.922,34.64.024,22.718a2.048,2.048,0,0,1,.7-1.689L22.923.35c.5-.466,1-.466,1.111,0l2.9,11.924a2.056,2.056,0,0,1-.7,1.689L4.034,34.641c-.5.466-1,.466-1.112,0" transform="translate(123.457 66.029)" fill="#121032"/>
      <path id="Fill_15" data-name="Fill 15" d="M2.131,26.043.023,17.373a2.053,2.053,0,0,1,.7-1.69L17.185.35c.5-.467,1-.467,1.112,0L20.4,9.02a2.054,2.054,0,0,1-.7,1.69L3.242,26.043c-.5.467-1,.467-1.111,0" transform="translate(128.217 68.934)" fill="#2d4a94"/>
      <path id="Fill_17" data-name="Fill 17" d="M1.752,3.148c-.772.72-1.541.719-1.716,0A3.169,3.169,0,0,1,1.118.54c.773-.72,1.541-.72,1.716,0A3.175,3.175,0,0,1,1.752,3.148" transform="translate(125.638 90.868)" fill="#2d4a94"/>
      <path id="Fill_19" data-name="Fill 19" d="M.664,9.646s-2-4.567.944-6.817S10.653,0,10.653,0C13.025,1.868,9.02,4.022,3.972,6.223Z" transform="translate(127.548 73.997)" fill="#acc1ff"/>
      <path id="Fill_21" data-name="Fill 21" d="M0,8.345s3.086,1.4,4.1-.351S3.28,1.844,2.53.343.981,2.655,1.353,4.37A12.905,12.905,0,0,1,1.493,7Z" transform="translate(138.018 84.345)" fill="#acc1ff"/>
      <path id="Fill_23" data-name="Fill 23" d="M0,10.217s3.25,1.343,4.454-.73S3.479,2.187,2.59.4.608,3.185,1.191,5.185s-.1,2.891-.1,2.891Z" transform="translate(142.175 78.149)" fill="#acc1ff"/>
      <path id="Fill_25" data-name="Fill 25" d="M0,9.025s2.871,1.186,3.935-.646S3.074,1.932,2.288.357.538,2.813,1.053,4.58A2.961,2.961,0,0,1,.962,7.133Z" transform="translate(144.437 77.198)" fill="#acc1ff"/>
      <path id="Fill_27" data-name="Fill 27" d="M0,10.217s3.249,1.343,4.453-.731S3.479,2.187,2.59.405s-1.982,2.78-1.4,4.78-.1,2.891-.1,2.891Z" transform="translate(139.931 81.324)" fill="#acc1ff"/>
      <path id="Fill_29" data-name="Fill 29" d="M43,24.348s6.552-13.315-7.364-20.7C25.9-1.523,7.1-2.469,1.367,9.362c-5.334,11,6.664,20.259,6.664,20.259S33.727,35.115,43,24.348" transform="translate(28.607 28.455)" fill="#5c84cd"/>
      <path id="Fill_31" data-name="Fill 31" d="M8.623,0S-3.407,1.639.952,8.053C3.26,11.448,16.294,13.3,16.294,13.3S18.848,1.542,8.623,0" transform="translate(40.33 37.389)" fill="#121032"/>
      <path id="Fill_33" data-name="Fill 33" d="M77.326,111.364s-44.559,14.964-63.761,7.494c0,0-6.018-1.873-8.434-13.664-.079-.386-.154-.781-.225-1.189-1.018-5.833-1.174-13.9.52-25.039,2.031-13.358-.779-20.181-1.982-33.481-.043-.469-.086-.945-.126-1.431-.129-1.439-.248-2.952-.368-4.562C1.657,21.932-3.932,14.426,4.816,9.211A130.345,130.345,0,0,1,25.04,0S34.8,3.1,41.682,0c0,0,10.468,5.129,18.516,8.063s5.4,24.2,7.939,36.408S74.972,66.4,78.854,86.655c3.55,18.526-1.528,24.709-1.528,24.709" transform="translate(22.003 47.322)" fill="#fefefe"/>
      <path id="Fill_35" data-name="Fill 35" d="M12.022,50.947a.644.644,0,0,1-.64-.595C11.009,45.243,7.126,32.277,4.8,24.53c-.451-1.506-.842-2.807-1.122-3.776C2,14.949.086,1.307.006.729A.642.642,0,0,1,1.277.552C1.3.693,3.255,14.681,4.914,20.4c.279.964.669,2.262,1.119,3.766,2.336,7.8,6.246,20.847,6.629,26.1a.641.641,0,0,1-.593.686l-.047,0" transform="translate(88.352 81.219)" fill="#abc0fe"/>
      <g id="Group_39" data-name="Group 39" transform="translate(30 152.387)">
        <path id="Clip_38-2" data-name="Clip 38" d="M0,0H71.413V18.883H0Z" transform="translate(0.816 0.116)" fill="none"/>
        <g id="Group_39-2" data-name="Group 39" clip-path="url(#clip-path-3)">
          <path id="Fill_37" data-name="Fill 37" d="M70.761,0s1.9,5.83-.785,9.749c0,0-40.03,13.895-66.884,7.411,0,0-2.418-2.913-3.092-8.89C0,8.27,32.295,16.3,70.761,0" transform="translate(0.816 0.116)" fill="#5c84cd"/>
        </g>
      </g>
      <path id="Fill_40" data-name="Fill 40" d="M18.882,7.362A10.454,10.454,0,0,0,28.65.642a.486.486,0,0,0-.921-.311,9.327,9.327,0,0,1-9.592,6.035C10.552,5.892.807.881.709.831a.486.486,0,1,0-.447.863C.667,1.9,10.284,6.85,18.076,7.337q.412.026.806.025" transform="translate(41.283 58.682)" fill="#abc0fe"/>
      <path id="Fill_42" data-name="Fill 42" d="M41.335.01s5.147,15.755,3.261,24.5c0,0-16.94,10.1-42.19,5.023,0,0-1.413-15.578-2.406-25.592,0,0,25.782-4.18,41.335-3.935" transform="translate(45.514 123.678)" fill="#5c84cd"/>
      <path id="Fill_44" data-name="Fill 44" d="M8.312,85.275a.364.364,0,0,0,.363-.348C10.23,51.277.818.8.723.3A.365.365,0,1,0,.006.432C.1.937,9.5,51.329,7.948,84.894a.364.364,0,0,0,.346.381h.018" transform="translate(48.952 50.525)" fill="#fff"/>
      <path id="Fill_46" data-name="Fill 46" d="M15.506,83.136h.012a.364.364,0,0,0,.353-.375C14.648,42.124.85.663.71.249A.364.364,0,1,0,.019.481c.138.413,13.9,41.776,15.124,82.3a.364.364,0,0,0,.363.354" transform="translate(64.241 50.396)" fill="#fff"/>
      <path id="Fill_48" data-name="Fill 48" d="M43.68,44.67C30.475,67.775.64,75.064.64,75.064a15.6,15.6,0,0,1,.082-9.313s27.6-5.132,39.162-28.219C49.288,18.752,44.817,0,44.817,0s4.06,0,6.123,2.06C50.94,2.06,53.562,27.379,43.68,44.67Z" transform="translate(26.788 51.223)" fill="#121032"/>
      <path id="Fill_50" data-name="Fill 50" d="M13.794,38.314c.172-.009.344-.021.516-.034a21.009,21.009,0,0,0,2.538-.361c.453-.089.9-.194,1.342-.314q1.006-.265,1.99-.629c.471-.168.937-.358,1.4-.559A27.679,27.679,0,0,0,35.954,21.436c.185-.473.357-.95.509-1.435a22.41,22.41,0,0,0,.678-2.618c.091-.443.164-.887.223-1.337a21.239,21.239,0,0,0,.191-2.4c0-.173.005-.345,0-.517C37.523,4.909,25.685,0,25.685,0L22.513,5.549,21.786,6.82l-5.657,9.894-9.365,6.1L5.553,23.6,0,27.224s5.59,11.532,13.794,11.09" transform="translate(40.958 78.474)" fill="#121032"/>
      <path id="Fill_52" data-name="Fill 52" d="M11.3,15.1c.453-.089.9-.194,1.342-.314C10.367,8.608,5.15,3.322,1.211,0L0,.787C3.811,3.973,9.034,9.154,11.3,15.1" transform="translate(46.511 101.291)" fill="#2d4a94"/>
      <path id="Fill_54" data-name="Fill 54" d="M4.835,6.319c3.613,3.2,7.157,5.046,10.52,5.515q.135-.664.223-1.337C9.528,9.661,3.947,3.972.727,0L0,1.271A45.139,45.139,0,0,0,4.835,6.319" transform="translate(62.744 84.023)" fill="#2d4a94"/>
      <path id="Fill_56" data-name="Fill 56" d="M25.738,0S35.2,4.956,29.759,13.214,14.919,31.6,9.151,32.2,0,27.282,0,27.282Z" transform="translate(40.903 78.473)" fill="#2d4a94"/>
      <path id="Fill_58" data-name="Fill 58" d="M0,16.975c.472-.168.937-.358,1.4-.559a15.636,15.636,0,0,1,3.834-9.87A16.258,16.258,0,0,1,15.774,1.434c.185-.472.357-.949.509-1.434A17.757,17.757,0,0,0,4.217,5.655,17.008,17.008,0,0,0,0,16.975" transform="translate(61.138 98.475)" fill="#2d4a94"/>
      <g id="Group_62" data-name="Group 62" transform="translate(0 57.387)">
        <path id="Clip_61-2" data-name="Clip 61" d="M0,0H47.545V94.415H0Z" transform="translate(0 0.803)" fill="none"/>
        <g id="Group_62-2" data-name="Group 62" clip-path="url(#clip-path-4)">
          <path id="Fill_60" data-name="Fill 60" d="M47.545,93.688S27.087,97.177,13.01,88.865C5.018,84.144-.917,75.62.117,60.493c.016-.229.032-.46.052-.691C3.484,18.966,24.56.491,24.56.491c7.893-2.05,16.67.056,4.5,52.035C25.483,73.614,45.82,75.341,45.82,75.341Z" transform="translate(0 0.803)" fill="#fefefe"/>
        </g>
      </g>
      <path id="Fill_63" data-name="Fill 63" d="M.642,40.16a.617.617,0,0,1-.2-.032.641.641,0,0,1-.412-.808c.082-.252,8.2-25.4,8.341-38.685A.642.642,0,0,1,9.656.648C9.514,14.131,1.334,39.462,1.251,39.717a.64.64,0,0,1-.609.443" transform="translate(28 75.375)" fill="#abc0fe"/>
      <path id="Fill_65" data-name="Fill 65" d="M.641,7.358A.642.642,0,0,1,.1,6.379L3.843.3A.642.642,0,1,1,4.935.979L1.188,7.053a.641.641,0,0,1-.547.3" transform="translate(35.334 79.223)" fill="#abc0fe"/>
      <path id="Fill_67" data-name="Fill 67" d="M2.451,22.745a.644.644,0,0,1-.591-.39C-.491,16.843.045,1.278.069.618A.641.641,0,1,1,1.35.665C1.345.824.8,16.6,3.041,21.852a.642.642,0,0,1-.339.842.655.655,0,0,1-.251.051" transform="translate(40.757 130.501)" fill="#abc0fe"/>
      <path id="Fill_69" data-name="Fill 69" d="M20.824,1.255A38.464,38.464,0,0,1,10.348,2.626,37.634,37.634,0,0,1,.224,1.279Q.105.7,0,.09A.639.639,0,0,1,.5.024a39.287,39.287,0,0,0,19.945,0,.642.642,0,0,1,.378,1.227" transform="translate(26.909 151.237)" fill="#abc0fe"/>
      <path id="Fill_71" data-name="Fill 71" d="M11.093,7.159c-.263,0-.531-.008-.809-.026C7.536,6.957,3.542,5.752.121,1.017A.641.641,0,1,1,1.161.266C7.126,8.525,14.919,5.211,15,5.177a.641.641,0,1,1,.518,1.173,11.807,11.807,0,0,1-4.422.809" transform="translate(30.667 124.63)" fill="#abc0fe"/>
      <g id="Group_75" data-name="Group 75" transform="translate(0 118.387)">
        <path id="Clip_74-2" data-name="Clip 74" d="M0,0H13.238V28.372H0Z" transform="translate(0 0.296)" fill="none"/>
        <g id="Group_75-2" data-name="Group 75" clip-path="url(#clip-path-5)">
          <path id="Fill_73" data-name="Fill 73" d="M13.01,28.372C5.018,23.651-.917,15.127.117,0,5.742,6.222,14.791,18.081,13.01,28.372" transform="translate(0 0.296)" fill="#5c84cd"/>
        </g>
      </g>
      <path id="Fill_76" data-name="Fill 76" d="M17.668,11v4.458a13.79,13.79,0,0,1-1.578,1.105C8.35,21.209,0,15.456,0,15.456V0L15.561,9.686Z" transform="translate(45.075 34.254)" fill="#adc3ff"/>
      <path id="Fill_78" data-name="Fill 78" d="M12.966,3.833V8.419a13.79,13.79,0,0,1-1.578,1.105C4.8,6.916,0,0,0,0L10.859,2.65Z" transform="translate(49.777 41.29)" fill="#121032"/>
      <path id="Fill_80" data-name="Fill 80" d="M.008,0S8.646,2.179,5.463,9.233c0,0-5.7-6.288-5.455-9.233" transform="translate(64.981 8.288)" fill="#121032"/>
      <path id="Fill_82" data-name="Fill 82" d="M0,1.329s2.532-2.991,3.963,0S4.293,10.374.44,9.383Z" transform="translate(67.681 24.168)" fill="#5c84cd"/>
      <path id="Fill_84" data-name="Fill 84" d="M26.928,27.981s.014,9.216-9.572,9.195C7.829,37.158,1.337,29.677,1,29.331l-.01-.009-.1-1.937L.343,17.332l-.29-5.374S-1.164,2.283,8.032.519c6.717-1.29,13.017-.175,16.2,3.33a8.253,8.253,0,0,1,2.1,4.854l.3,9.652L26.7,20.72Z" transform="translate(44.085 8.005)" fill="#adc3ff"/>
      <path id="Fill_86" data-name="Fill 86" d="M0,0S5.746,2.393,10.178,1.693c0,0-1.2,5.583-6.336,4.136C.442,4.872,0,0,0,0" transform="translate(57.654 30.015)" fill="#fff"/>
      <path id="Fill_88" data-name="Fill 88" d="M.46,12.811a7.846,7.846,0,0,0,1.384,3.832,5.624,5.624,0,0,1,4.471,3.464l2.393.316a23.66,23.66,0,0,0-.5-6.867c-.631-2.279,1.506-2.991,2-4.985a2.536,2.536,0,0,0,0-1.749A8.939,8.939,0,0,1,17.7,5.456c4.08,1.262,7.813,1.7,9.68-.781a2.111,2.111,0,0,0,.42-.825C24.624.345,18.323-.772,11.606.519,2.41,2.283.323,6.743.323,6.743-.386,9.012.266,10.857.46,12.811" transform="translate(40.512 8.004)" fill="#121032"/>
      <path id="Fill_90" data-name="Fill 90" d="M7.3,0A42.21,42.21,0,0,0,0,2.247,6.821,6.821,0,0,0,1.02,4.271,5.626,5.626,0,0,1,5.491,7.736l2.393.315a23.661,23.661,0,0,0-.5-6.867A2.724,2.724,0,0,1,7.3,0" transform="translate(41.336 20.376)" fill="#5c84cd"/>
      <g id="Group_94" data-name="Group 94" transform="translate(39 0.387)">
        <path id="Clip_93-2" data-name="Clip 93" d="M0,0H29.52V13.531H0Z" transform="translate(0.355 0.613)" fill="none"/>
        <g id="Group_94-2" data-name="Group 94" clip-path="url(#clip-path-6)">
          <path id="Fill_92" data-name="Fill 92" d="M.043,13.531S14.974,7.626,25.587,7.267c.277-.009.552-.015.823-.015a19.442,19.442,0,0,1,3.11.206S27.494,2.03,20.236.436A18.8,18.8,0,0,0,17.547.052a24.116,24.116,0,0,0-4.211.093c-.051,0-.1.009-.152.015q-.6.066-1.169.161a18.587,18.587,0,0,0-3.188.8c-.252.086-.5.179-.734.274A13.815,13.815,0,0,0,3.774,4.108,12.677,12.677,0,0,0,2.762,5.169,11.543,11.543,0,0,0,.043,13.531" transform="translate(0.355 0.613)" fill="#adc3ff"/>
        </g>
      </g>
      <path id="Fill_95" data-name="Fill 95" d="M0,0A13.865,13.865,0,0,1,8.04,7.215q.168.361.32.746l.7-.278C9,7.52,8.933,7.357,8.863,7.2A14.27,14.27,0,0,0,2.689.384,18.8,18.8,0,0,0,0,0" transform="translate(56.902 1.052)" fill="#121032"/>
      <path id="Fill_97" data-name="Fill 97" d="M0,.176C3.7,1.8,5.5,6.062,5.521,6.112l.7-.288A13.387,13.387,0,0,0,1.321,0L1.169.015C.768.059.377.113,0,.176" transform="translate(51.37 1.145)" fill="#121032"/>
      <path id="Fill_99" data-name="Fill 99" d="M0,.274c.262,1.885,1.186,5.78,4.392,7.772l.4-.642C1.782,5.534.955,1.683.734,0,.482.086.238.178,0,.274" transform="translate(47.448 2.118)" fill="#121032"/>
      <path id="Fill_101" data-name="Fill 101" d="M1.078,8.073l.655-.382C.345,5.319.715,2.175,1.248,0A12.709,12.709,0,0,0,.235,1.062a10.45,10.45,0,0,0,.843,7.011" transform="translate(41.882 5.108)" fill="#121032"/>
      <path id="Fill_103" data-name="Fill 103" d="M30.75,5.028A38.812,38.812,0,0,0,1.565,12.969,4.772,4.772,0,0,1,.209,8.044S13.426-3.831,29.686,1.275A3.686,3.686,0,0,1,30.75,5.028" transform="translate(39.19 6.305)" fill="#121032"/>
      <path id="Fill_105" data-name="Fill 105" d="M6.174,1.215c0,.671-1.383,1.215-3.087,1.215S0,1.886,0,1.215,1.382,0,3.087,0,6.174.544,6.174,1.215" transform="translate(52.04 26.33)" fill="#ec6905"/>
      <path id="Fill_107" data-name="Fill 107" d="M3.829,2.395c-.237.023-.487.036-.743.036C1.383,2.431,0,1.886,0,1.215S1.383,0,3.086,0c.23,0,.455.01.671.03Z" transform="translate(66.96 26.33)" fill="#ec6905"/>
      <path id="Fill_109" data-name="Fill 109" d="M1.867,1.668c0,.921-.418,1.668-.934,1.668S0,2.589,0,1.668.418,0,.933,0s.934.746.934,1.668" transform="translate(56.246 22.185)" fill="#37202b"/>
      <path id="Fill_111" data-name="Fill 111" d="M1.867,1.668c0,.921-.418,1.668-.934,1.668S0,2.589,0,1.668.418,0,.933,0s.934.746.934,1.668" transform="translate(65.363 22.185)" fill="#37202b"/>
      <path id="Fill_113" data-name="Fill 113" d="M.019,2.939C.23,1.966,1.04.139,4.152,0A.817.817,0,0,1,4.338,1.62,3.648,3.648,0,0,0,1.631,3.564a.813.813,0,0,1-1.152.307L.385,3.813a.822.822,0,0,1-.366-.874" transform="translate(53.48 16.684)" fill="#37202b"/>
      <path id="Fill_115" data-name="Fill 115" d="M4.984,2.939C4.773,1.966,3.963.139.851,0A.817.817,0,0,0,.665,1.62,3.647,3.647,0,0,1,3.372,3.564a.813.813,0,0,0,1.152.307l.094-.058a.822.822,0,0,0,.366-.874" transform="translate(64.458 16.684)" fill="#37202b"/>
      <path id="Fill_117" data-name="Fill 117" d="M3.114,0c-.043.1-1.257,2.916-3,3.74L.1,3.73,0,1.793A6.613,6.613,0,0,0,3.114,0" transform="translate(44.971 33.596)" fill="#37202b"/>
      <path id="Fill_119" data-name="Fill 119" d="M7,2.551S3.314-2.4.614,1.491C-1.61,4.7,2.6,13.049,7,10.187Z" transform="translate(39.398 24.645)" fill="#adc3ff"/>
      <path id="Fill_121" data-name="Fill 121" d="M0,.849A.849.849,0,1,0,.85,0,.85.85,0,0,0,0,.849" transform="translate(42.664 32.411)" fill="#fff"/>
      <path id="Fill_123" data-name="Fill 123" d="M4.3,6.174a.3.3,0,0,0,.042,0,.379.379,0,0,0,.335-.418A7.1,7.1,0,0,0,.52.027a.379.379,0,1,0-.282.7A6.33,6.33,0,0,1,3.919,5.837a.38.38,0,0,0,.377.337" transform="translate(41.598 27.167)" fill="#37202b"/>
      <path id="Fill_125" data-name="Fill 125" d="M.38,1.626a.374.374,0,0,0,.238-.084C.948,1.274,1.948.618,2.6.785A.382.382,0,0,0,3.064.512.382.382,0,0,0,2.79.05C1.651-.242.292.83.141.953a.379.379,0,0,0,.239.673" transform="translate(41.976 29.416)" fill="#37202b"/>
      <path id="Fill_127" data-name="Fill 127" d="M.8,8.648A3.238,3.238,0,0,0,3.841,7.012a.38.38,0,0,0,0-.326C2.3,3.511.738.249.722.216A.38.38,0,0,0,.037.543C.053.575,1.556,3.717,3.068,6.835A2.6,2.6,0,0,1,.8,7.89a.379.379,0,1,0,0,.758" transform="translate(61.738 19.844)" fill="#37202b"/>
      <path id="Fill_129" data-name="Fill 129" d="M16.376,0s8.443,6.07,10.966,6.043a14.023,14.023,0,0,1-8.465,4.285C12.072,11,0,8.992,0,8.992A175.007,175.007,0,0,1,16.376,0" transform="translate(28.607 46.513)" fill="#5c84cd"/>
      <path id="Fill_131" data-name="Fill 131" d="M6.794,0A10.223,10.223,0,0,1,0,6.2a5.432,5.432,0,0,0,6.3,3.92c5.16-.729,9.969-5.254,9.969-5.254S10.867,0,6.794,0" transform="translate(55.949 46.361)" fill="#5c84cd"/>
    </g>
  </g>
</svg>
