<svg xmlns="http://www.w3.org/2000/svg" width="252.709" height="86.082" viewBox="0 0 252.709 86.082">
  <g id="Shapes" transform="translate(-0.155 -0.763)">
    <rect id="Rectangle" width="15" height="3" rx="1.5" transform="matrix(0.799, -0.602, 0.602, 0.799, 26.608, 22.816)" fill="#fe4b20"/>
    <rect id="Rectangle_Copy_9" data-name="Rectangle Copy 9" width="15" height="3" rx="1.5" transform="translate(240.136 39.743) rotate(-45)" fill="#fe4b20"/>
    <rect id="Rectangle-2" data-name="Rectangle" width="6" height="6" transform="translate(89.778 0.763) rotate(42)" fill="#9186f4"/>
    <rect id="Rectangle_Copy_20" data-name="Rectangle Copy 20" width="6" height="6" transform="translate(5.793 79.155) rotate(70)" fill="#9186f4"/>
    <rect id="Rectangle_Copy_22" data-name="Rectangle Copy 22" width="6" height="6" transform="translate(130.793 27.155) rotate(70)" fill="#fe4b20"/>
    <rect id="Rectangle_Copy_23" data-name="Rectangle Copy 23" width="10" height="2" rx="1" transform="translate(208.385 30.202) rotate(138)" fill="#9186f4"/>
    <rect id="Rectangle_Copy_24" data-name="Rectangle Copy 24" width="10" height="2" rx="1" transform="translate(71.771 50.432) rotate(-149)" fill="#9186f4"/>
    <g id="star_2_" data-name="star (2)" transform="translate(196.479 61.5) rotate(-45)">
      <path id="Path" d="M13.376,4.719,8.939,4.308,7.176.215a.356.356,0,0,0-.653,0L4.76,4.308.323,4.719a.356.356,0,0,0-.2.621L3.469,8.282l-.98,4.347a.356.356,0,0,0,.528.384L6.85,10.738l3.832,2.275a.356.356,0,0,0,.528-.384l-.98-4.347,3.348-2.941A.356.356,0,0,0,13.376,4.719Z" transform="translate(1.644 0.189)" fill="#ffdc64"/>
      <g id="Group">
        <path id="Path-2" data-name="Path" d="M1,.231c.226.314.865,1.664,1.23,2.45a.123.123,0,0,1-.2.142C1.408,2.227.331,1.193.1.879A.555.555,0,1,1,1,.231Z" transform="translate(2.952 0.032)" fill="#fff082"/>
        <path id="Path-3" data-name="Path" d="M1.242.231C1.016.545.377,1.894.012,2.681a.123.123,0,0,0,.2.142c.63-.6,1.707-1.629,1.933-1.943a.555.555,0,1,0-.9-.648Z" transform="translate(11.787 0.032)" fill="#fff082"/>
        <path id="Path-4" data-name="Path" d="M2.847.428C2.479.308,1,.11.139,0a.123.123,0,0,0-.075.23C.823.651,2.135,1.363,2.5,1.483A.555.555,0,0,0,2.847.428Z" transform="translate(13.757 9.048)" fill="#fff082"/>
        <path id="Path-5" data-name="Path" d="M.383.428C.751.308,2.23.11,3.091,0a.123.123,0,0,1,.075.23C2.407.651,1.095,1.363.727,1.483A.555.555,0,0,1,.383.428Z" transform="translate(0 9.048)" fill="#fff082"/>
        <path id="Path-6" data-name="Path" d="M0,2.807C0,2.42.27.952.433.1A.123.123,0,0,1,.676.1c.163.851.433,2.32.433,2.707A.555.555,0,0,1,0,2.807Z" transform="translate(7.956 12.929)" fill="#fff082"/>
      </g>
      <path id="Path-7" data-name="Path" d="M7.817,1.7,7.176.215a.356.356,0,0,0-.653,0L4.76,4.308.323,4.719a.356.356,0,0,0-.2.621L3.469,8.282l-.98,4.347a.356.356,0,0,0,.528.384l.51-.3A27.6,27.6,0,0,1,7.817,1.7Z" transform="translate(1.644 0.189)" fill="#ffc850"/>
    </g>
  </g>
</svg>
