<svg id="growth" xmlns="http://www.w3.org/2000/svg" width="18" height="17" viewBox="0 0 18 17">
  <path id="Path" d="M2.9,0H2.077A2.042,2.042,0,0,0,0,2V3.456A.554.554,0,0,0,.565,4H3a1.567,1.567,0,0,1-.1-.544Z" transform="translate(0 13)" fill="#fff"/>
  <path id="Path-2" data-name="Path" d="M2.9,0H2.077A1.932,1.932,0,0,0,0,1.736V5.528A.525.525,0,0,0,.565,6H3a1.2,1.2,0,0,1-.1-.472Z" transform="translate(4 11)" fill="#fff"/>
  <path id="Path-3" data-name="Path" d="M7.9,5,4.395.2a.488.488,0,0,0-.79,0L.1,5a.5.5,0,0,0-.044.52A.491.491,0,0,0,.491,5.8H1.754V16.5a.5.5,0,0,0,.491.5H5.754a.5.5,0,0,0,.491-.5V5.8H7.509a.491.491,0,0,0,.439-.274A.5.5,0,0,0,7.9,5Z" transform="translate(10)" fill="#fff"/>
  <path id="Path-4" data-name="Path" d="M2.9,0H2.077A1.968,1.968,0,0,0,0,1.832V8.5A.535.535,0,0,0,.565,9H3a1.332,1.332,0,0,1-.1-.5Z" transform="translate(8 8)" fill="#fff"/>
</svg>
